<?xml version="1.0" standalone="no"?>
<!DOCTYPE svg PUBLIC "-//W3C//DTD SVG 20010904//EN"
 "http://www.w3.org/TR/2001/REC-SVG-20010904/DTD/svg10.dtd">
<svg version="1.0" xmlns="http://www.w3.org/2000/svg"
 width="85.000000pt" height="85.000000pt" viewBox="0 0 85.000000 85.000000"
 preserveAspectRatio="xMidYMid meet">
<metadata>
Created by potrace 1.14, written by Peter Selinger 2001-2017
</metadata>
<g transform="translate(0.000000,85.000000) scale(0.100000,-0.100000)"
fill="#000000" stroke="none">
<path d="M383 665 c-21 -41 -43 -75 -51 -75 -7 0 -45 7 -83 16 -39 9 -72 14
-75 12 -2 -2 12 -37 31 -77 19 -40 35 -74 35 -76 0 -2 -29 -27 -65 -55 -62
-49 -73 -70 -38 -70 9 0 37 15 63 34 26 19 62 42 79 50 31 16 31 17 15 47 -8
17 -14 32 -12 34 4 4 130 -47 125 -51 -2 -2 -26 5 -55 16 -37 14 -50 16 -46 6
3 -7 11 -13 18 -13 28 0 76 -26 76 -42 0 -9 -7 -28 -14 -43 -9 -16 -11 -30 -5
-33 5 -4 9 -1 9 6 0 7 2 10 5 7 3 -3 1 -16 -4 -29 l-9 -24 -13 28 c-9 21 -18
27 -32 23 -11 -3 -16 -1 -11 4 5 4 18 10 29 12 12 2 16 6 9 10 -14 9 -148 -69
-204 -120 -42 -39 -44 -41 -20 -42 14 0 36 -2 50 -5 14 -3 7 2 -15 10 l-40 15
35 -4 c19 -2 44 -7 55 -10 11 -4 2 2 -20 13 -47 23 -30 28 22 6 52 -22 55 -18
5 8 l-43 23 30 22 c49 36 60 23 63 -78 l3 -89 64 49 c35 28 68 50 73 50 6 0
38 -23 73 -50 35 -28 66 -50 69 -50 3 0 6 40 6 89 l0 89 71 16 c39 9 79 16 88
16 10 0 -7 22 -44 56 -33 31 -52 51 -43 44 21 -14 43 -2 109 57 58 52 49 94
-21 92 l-35 -2 40 -6 c42 -6 58 -32 35 -55 -8 -8 -9 -6 -4 8 6 17 4 18 -22 12
-74 -18 -104 -27 -104 -32 0 -3 10 -2 21 1 15 5 19 4 15 -4 -7 -10 0 -13 22
-10 4 1 6 6 4 12 -2 7 0 9 4 4 4 -4 17 1 28 10 20 17 20 17 7 1 -10 -14 -11
-18 -1 -18 10 0 10 -3 0 -15 -7 -9 -19 -14 -27 -11 -9 4 -12 1 -7 -7 5 -9 4
-9 -7 1 -7 6 -17 12 -21 12 -11 0 -6 -23 7 -32 6 -5 5 -8 -2 -8 -7 0 -16 -1
-20 -2 -3 -2 -7 5 -9 15 -1 9 1 15 5 12 4 -2 8 2 8 10 0 12 -4 12 -16 3 -9 -7
-22 -19 -28 -27 -12 -13 -13 -13 -13 1 0 20 -37 30 -62 17 -11 -6 -26 -8 -34
-5 -29 11 -12 34 44 60 62 29 33 24 -36 -5 l-43 -19 16 -30 c15 -30 16 -30 46
-14 17 8 33 13 36 10 3 -3 -12 -12 -32 -20 -35 -15 -39 -15 -51 1 -7 10 -14
21 -14 25 0 3 -3 13 -6 21 -4 10 13 22 61 41 37 15 74 24 83 22 10 -3 31 -2
47 3 17 5 22 10 12 10 -15 1 -16 5 -7 21 13 24 13 24 -65 5 -102 -25 -102 -25
-141 60 -19 41 -37 75 -39 75 -3 0 -22 -34 -42 -75z m37 -260 c-16 -47 -23
-40 -8 8 6 20 13 35 16 33 2 -3 -1 -21 -8 -41z m-124 -70 c-11 -8 -25 -15 -30
-15 -6 1 0 7 14 15 32 19 40 18 16 0z"/>
<path d="M600 500 c-8 -5 -10 -10 -5 -10 6 0 17 5 25 10 8 5 11 10 5 10 -5 0
-17 -5 -25 -10z"/>
<path d="M320 443 c0 -6 -25 -25 -55 -42 -30 -17 -82 -58 -117 -92 l-63 -61
64 56 c35 32 88 71 117 88 55 31 71 45 60 55 -3 4 -6 2 -6 -4z"/>
<path d="M257 270 c3 -11 7 -20 9 -20 2 0 4 9 4 20 0 11 -4 20 -9 20 -5 0 -7
-9 -4 -20z"/>
<path d="M220 276 c0 -2 7 -7 16 -10 8 -3 12 -2 9 4 -6 10 -25 14 -25 6z"/>
<path d="M118 203 c12 -2 30 -2 40 0 9 3 -1 5 -23 4 -22 0 -30 -2 -17 -4z"/>
</g>
</svg>
